<mxfile host="drawio-plugin" modified="2024-12-25T17:35:29.288Z" agent="Mozilla/5.0 (Windows NT 10.0; Win64; x64) AppleWebKit/537.36 (KHTML, like Gecko) Chrome/122.0.0.0 Safari/537.36" etag="lUoELTdK6UrrrG4get8A" version="22.1.22" type="embed">
  <diagram id="5602Q4h_NIjAg0ga6kvT" name="Page-1">
    <mxGraphModel dx="712" dy="392" grid="1" gridSize="10" guides="1" tooltips="1" connect="1" arrows="1" fold="1" page="1" pageScale="1" pageWidth="850" pageHeight="1100" math="0" shadow="0">
      <root>
        <mxCell id="0" />
        <mxCell id="1" parent="0" />
        <mxCell id="10" value="JDK&lt;br&gt;" style="whiteSpace=wrap;html=1;aspect=fixed;strokeColor=default;" parent="1" vertex="1">
          <mxGeometry x="220" y="70" width="290" height="290" as="geometry" />
        </mxCell>
        <mxCell id="12" value="" style="whiteSpace=wrap;html=1;aspect=fixed;" parent="1" vertex="1">
          <mxGeometry x="280" y="130" width="170" height="170" as="geometry" />
        </mxCell>
        <mxCell id="13" value="" style="whiteSpace=wrap;html=1;aspect=fixed;" parent="1" vertex="1">
          <mxGeometry x="325" y="170" width="80" height="80" as="geometry" />
        </mxCell>
        <mxCell id="14" value="" style="html=1;shadow=0;dashed=0;align=center;verticalAlign=middle;shape=mxgraph.arrows2.jumpInArrow;dy=15;dx=38;arrowHead=55;strokeColor=default;" parent="1" vertex="1">
          <mxGeometry x="510" y="40" width="100" height="100" as="geometry" />
        </mxCell>
        <mxCell id="15" value="" style="html=1;shadow=0;dashed=0;align=center;verticalAlign=middle;shape=mxgraph.arrows2.jumpInArrow;dy=15;dx=38;arrowHead=55;" parent="1" vertex="1">
          <mxGeometry x="450" y="140" width="140" height="100" as="geometry" />
        </mxCell>
        <mxCell id="19" value="JDK" style="rounded=1;whiteSpace=wrap;html=1;strokeColor=#990000;" parent="1" vertex="1">
          <mxGeometry x="610" y="50" width="120" height="30" as="geometry" />
        </mxCell>
        <mxCell id="20" style="edgeStyle=orthogonalEdgeStyle;rounded=0;orthogonalLoop=1;jettySize=auto;html=1;exitX=0.5;exitY=1;exitDx=0;exitDy=0;" parent="1" source="19" target="19" edge="1">
          <mxGeometry relative="1" as="geometry" />
        </mxCell>
        <mxCell id="21" value="JRE" style="rounded=1;whiteSpace=wrap;html=1;strokeColor=default;" parent="1" vertex="1">
          <mxGeometry x="590" y="150" width="120" height="30" as="geometry" />
        </mxCell>
        <mxCell id="53" style="edgeStyle=orthogonalEdgeStyle;rounded=0;orthogonalLoop=1;jettySize=auto;html=1;exitX=0.25;exitY=1;exitDx=0;exitDy=0;" edge="1" parent="1" source="22">
          <mxGeometry relative="1" as="geometry">
            <mxPoint x="60" y="300" as="targetPoint" />
          </mxGeometry>
        </mxCell>
        <mxCell id="22" value="JVM/JIT" style="rounded=1;whiteSpace=wrap;html=1;strokeColor=default;" parent="1" vertex="1">
          <mxGeometry x="30" y="240" width="120" height="30" as="geometry" />
        </mxCell>
        <mxCell id="25" value="BYTECODE&lt;br&gt;" style="shape=card;whiteSpace=wrap;html=1;" parent="1" vertex="1">
          <mxGeometry x="290" y="645" width="110" height="155" as="geometry" />
        </mxCell>
        <mxCell id="26" value="test.java&lt;br&gt;" style="shape=note;whiteSpace=wrap;html=1;backgroundOutline=1;darkOpacity=0.05;strokeColor=default;" parent="1" vertex="1">
          <mxGeometry x="70" y="660" width="80" height="140" as="geometry" />
        </mxCell>
        <mxCell id="28" value="MACHINE CODE(0 AND 1)" style="shape=cube;whiteSpace=wrap;html=1;boundedLbl=1;backgroundOutline=1;darkOpacity=0.05;darkOpacity2=0.1;strokeColor=default;" parent="1" vertex="1">
          <mxGeometry x="520" y="645" width="150" height="150" as="geometry" />
        </mxCell>
        <mxCell id="29" value="" style="html=1;shadow=0;dashed=0;align=center;verticalAlign=middle;shape=mxgraph.arrows2.jumpInArrow;dy=15;dx=38;arrowHead=55;direction=east;" parent="1" vertex="1">
          <mxGeometry x="150" y="660" width="140" height="100" as="geometry" />
        </mxCell>
        <mxCell id="30" value="" style="html=1;shadow=0;dashed=0;align=center;verticalAlign=middle;shape=mxgraph.arrows2.jumpInArrow;dy=15;dx=38;arrowHead=55;" parent="1" vertex="1">
          <mxGeometry x="400" y="660" width="120" height="100" as="geometry" />
        </mxCell>
        <mxCell id="31" value="COMPILATION" style="ellipse;whiteSpace=wrap;html=1;strokeColor=default;" parent="1" vertex="1">
          <mxGeometry x="145" y="620" width="120" height="35" as="geometry" />
        </mxCell>
        <mxCell id="32" value="BY JOVAC" style="ellipse;whiteSpace=wrap;html=1;" parent="1" vertex="1">
          <mxGeometry x="180" y="740" width="90" height="40" as="geometry" />
        </mxCell>
        <mxCell id="34" value="JVM" style="ellipse;whiteSpace=wrap;html=1;direction=south;" parent="1" vertex="1">
          <mxGeometry x="420" y="750" width="80" height="60" as="geometry" />
        </mxCell>
        <mxCell id="35" value="INTERPRETETION" style="ellipse;whiteSpace=wrap;html=1;" parent="1" vertex="1">
          <mxGeometry x="400" y="600" width="120" height="45" as="geometry" />
        </mxCell>
        <mxCell id="37" value="PLATFORM iNDEPENDENT" style="rounded=1;whiteSpace=wrap;html=1;" parent="1" vertex="1">
          <mxGeometry x="285" y="830" width="120" height="40" as="geometry" />
        </mxCell>
        <mxCell id="38" value="PLATFORM DEPENDENT" style="rounded=1;whiteSpace=wrap;html=1;" parent="1" vertex="1">
          <mxGeometry x="530" y="830" width="130" height="40" as="geometry" />
        </mxCell>
        <mxCell id="43" value="The &lt;code&gt;javac&lt;/code&gt; compiler processes this code and generates a &lt;code&gt;.class&lt;/code&gt; file containing bytecode" style="text;whiteSpace=wrap;html=1;" parent="1" vertex="1">
          <mxGeometry y="910" width="510" height="40" as="geometry" />
        </mxCell>
        <mxCell id="44" value="javac HelloWorld.java" style="text;whiteSpace=wrap;" parent="1" vertex="1">
          <mxGeometry x="10" y="940" width="150" height="40" as="geometry" />
        </mxCell>
        <mxCell id="45" value="java HelloWorld" style="text;whiteSpace=wrap;html=1;" parent="1" vertex="1">
          <mxGeometry x="10" y="990" width="460" height="40" as="geometry" />
        </mxCell>
        <mxCell id="46" value="he bytecode in the &lt;code&gt;.class&lt;/code&gt; file is loaded into the JVM using the &lt;code&gt;java&lt;/code&gt; command." style="text;whiteSpace=wrap;html=1;" parent="1" vertex="1">
          <mxGeometry x="3" y="970" width="460" height="40" as="geometry" />
        </mxCell>
        <mxCell id="47" value="&lt;li&gt;The JVM initially interprets the bytecode line by line.&lt;/li&gt;&lt;li&gt;For frequently executed code blocks (called &quot;hot spots&quot;), the JIT compiler translates the bytecode into native machine code and caches it.&lt;/li&gt;&lt;li&gt;Subsequent executions of the same code use the cached machine code, significantly improving performance.&lt;/li&gt;" style="text;whiteSpace=wrap;html=1;" parent="1" vertex="1">
          <mxGeometry x="3" y="1030" width="560" height="100" as="geometry" />
        </mxCell>
        <mxCell id="48" value="Errors (e.g., &lt;code&gt;NullPointerException&lt;/code&gt;, &lt;code&gt;ArrayIndexOutOfBoundsException&lt;/code&gt;) are handled during execution." style="text;whiteSpace=wrap;html=1;" parent="1" vertex="1">
          <mxGeometry x="330" y="990" width="560" height="50" as="geometry" />
        </mxCell>
        <mxCell id="49" value="The compiler detects errors like syntax violations, incorrect method calls, type mismatches, etc." style="text;whiteSpace=wrap;html=1;" parent="1" vertex="1">
          <mxGeometry x="240" y="930" width="560" height="40" as="geometry" />
        </mxCell>
        <mxCell id="50" value="" style="shape=image;verticalLabelPosition=bottom;labelBackgroundColor=default;verticalAlign=top;aspect=fixed;imageAspect=0;image=data:image/png,iVBORw0KGgoAAAANSUhEUgAAAu8AAAElCAYAAABUGAweAAAAAXNSR0IArs4c6QAAAARnQU1BAACxjwv8YQUAAAAJcEhZcwAADsMAAA7DAcdvqGQAAF2tSURBVHhe7Z0LvFZF1f8HCzABBeMmgngyMyLBQDRIMUMkgRcskZIsJEkMLVIzKikw8S3CMDMoCgLL6JXMVwgoQi1LwURR+EtqpIRckovihYtCyf/9ztnrcc72uZ/nOefZ5/y+n8/+nP3sPXv27Jk1a9asWXufJlVVVYecEEIIIYQQouI5LPorhBBCCCGEqHBkvAshhBBCCJEQZLwLIYQQQgiREGS8CyGEEEIIkRBkvAshhBBCCJEQZLwLIYQQQgiREGS8CyGEEEIIkRBkvAshhBBCCJEQZLwLIYQQQgiREGS8CyGEEEIIkRBkvAshhBBCCJEQZLwLIYQQQgiREBJlvC9cuNCtXr3ab7NmzYqOloYjjjjCzZgxwz300EPuwQcfdF/5yleiM5VBIc9e6c8ihMgOfdz6O31fCCGEMJpUVVUdivZrTZ8+fdyUKVNc+/btoyNv8p///Me9/PLLbtWqVX5g2rFjR3QmfxjE/q+8fp9Bbfz48X6/FMTLvnHjRjdy5Ei/XwkU8uzlfpZc7Uzb/vGPf3SzZ892+/bti86IQsnU5pMmTXLDhw/3+3Fef/11X/+PPvqo++lPf/qWfkbfo/0gLhdM+M444wzXpEkT98Ybb7glS5a4G264ITpbOGE5KQcyw+9zzz3X32Pv3r3upptu8vcJicvXAw884BYsWPAWmXvxxRfd1KlT3V/+8pfoyJv84he/cO9973ujX87L4bRp09yyZcuiI5VNtnbKRro6R3YGDx7sJk6c6Cf2cQ4cOOBeeOGFt/TZbNdA0upUCCEaCnXmeX/b297mjj76aDdkyBD3/e9/3x133HHRmbrlox/9qPvud7/rli9f7n7wgx9ER6uNo6eeesobnwxmjzzySHQmedTns9DOxxxzjLvooovcd77zneho4WRqJ5Gd5s2buy5durjzzz/f/fznP3fDhg2LzmRn9OjR7rTTTvNGNWD8f+973/P7peTxxx93+/fv9/sYhR/4wAf8fki3bt3cUUcd5feR37Vr1/r9OKTp1atX9OtNkJ1OnTpFv0QumjVrluqzGONCCCEqm7Ia74sWLfLeo8svv9wbkwaG+4c//OHoV93y2c9+1p199tl+IvH2t789OlrNNddc4z74wQ+6D33oQ95wTDJ1+SzWztdff33K04sR2L17d3fOOef434WSrZ3Em1DfeOSpf7ykTNyYtME73/lON27cONevXz//OxMnn3yy+/jHP+4NfyDP22+/vSyrJg8//LDbuXOn30dG3vOe9/j9EDzmVhY8wkwkQng+VgaYKPbo0SM6+iannHKKa9myZfRLxDl48KCbM2eOl5nrrrvObdu2zR+nPd73vvel7bPhNbadddZZ8roLIUQ9UCeedwbfFStW+CV9OOyww9w73vEOvy8aDoQ/EBZlYHTj1RN1w3333ecN+TvvvNP9+9//9scIM7nwwgv9fibGjBnjPa9AHyVcZ+XKlf53qXnuuee8J/3QoepoPcp35pln+n1gYh+Gu2zYsMH9v//3/6Jf1TCpMF1y/PHH1zA28ea///3v9zpmz5493nMvMvOHP/zBvxfDZAjUZ4UQovKps7AZjHUGVGCgsKVzwEP8s5/9zMeu4jn861//6j06eOxzweCP92jx4sU+Npbr8e7de++9Pt7T4jWJBeWcxRAD3iOOYawAf/nNFn8plPjP2267LVVGNvYpN+UPCfP50Y9+5KZPn+7uv/9+/5uXSMmnd+/eUerq5yc++U9/+pMvO+kYUOfNm+c9YXHwON58882pspD21ltvrfFs6Z6F5126dGnq+I033ujLz/WWz8yZM70ntlgom/Haa6+5l156KfpVbVhdddVV7ne/+51vY+7JM/z4xz9O1Ue2dsIoveOOO/w+WxjW8Y1vfCNVdzwj18DnP/95b4hynDhog7jgX/3qV6lnp13uuusu94lPfCJK8Sb5pMXDbfehrb/whS+4u+++2z+nyePVV18dpS4vtPczzzwT/XLuXe96V1o5gjBchn55zz33ePksJ4899ljKqx8PfcGTzmoLYKCnC5lBrvDIAx728PqPfOQjrnPnzn5/+/btqUlMseSrX8Bklw0ZpL1///vf+/Rs6LRPfepTUepqyJ9+aPoBefnNb37jWrVqFaUoP6xyWLgU9aUJjxBCVDZ1Yrxj/LA1bdrU/8b7hqEKF1xwgR+8MBgPP/xwfwwjv127dt4jyACZjVNPPdW/AIfn0JbaGYiOPPJIb3DzQlttYRLx9a9/3RtAVkZgn3ITJ/q5z30uOloTzrO8bIM8xi35YOwBIQ0Yniz1t2jRIjWI4v1iYOdYHNLyYqGVhbSnn356wcYhHkvKZ542/mLIfe1rXyvqnYQRI0b4cgDL7HiCzYPL81NPxNW2bds2NZHjGTDcv/Wtb+UM78C4DI3SMK6Z8AurOwwfM/6J/0bu8PT+/e9/98doz2uvvda9+93vTj077ULaL37xizVeBi4krcEz8ZzHHnusf06TR/oAdVRuMIzxWButW7f2Huo4eFnDcBnqttyGOyAXGNZAXZ500kl+H4iBt75C+I7piRD6BC9x0qbULwa/XWPXY4Q+/fTT/lhtKFa/MAHhJVNCl0jPhk77zGc+k5JzZJT3fwYOHJgqP88TX30oJ5deeqmf8FA+6vNvf/ubn8AJIYSoXMpqvGOs4E3CI8XARawqHqhvf/vb3oBnkMLIYSBk4ODFSga8W265xb366qt+IOvbt29Wow6DjhjaX/7yl96LiKFMvC7eIwYk4q5ZlmeQxRvLoG9QNo5l+5IDsfkf+9jH/MBNGXnhjnhsjDpb/mfgHTp0aFqPNc/8k5/8xN9jzZo10VHnunbt6stF/tQN4KUmbpxn+OEPf+g2bdqU1nOI55GvQlAOBlvgWfGwmsc5HzDy8HrzEjHL57Z0jqF33nnn+f18sHYm5ppnwehiJSF8+Y2yYghRTtqWNqZOaHPqkOvMGMrWTrw7YSETGKVMFqhHJjoGbWXGKkY2sNLz5JNPelmy9uR5eW5e7jSZwUDHmEE2C0kbgtxyL56ZFRHCNwA5SfeCZTmwuPdsMPnp2LGj3+dLUKzChPVeLpC7J554wrc70BdMbsNJGG2NnkgH9YscAYZ1//79fTv07NnTX//KK6/UmOgVS776JQ4ygKceeeFLOUxmgZUGe1bCmU444QSfD/mxskRf5C+/ywWT2bFjx/p+hR5j9YL7EdqY6etC4TW22YqlEEKIuqXOwmYYqPGEYSxaDCuGqxkPu3fv9oMcxgOD49atW/1xvKgMyJlgWRpvJh6sXbt2eY80AycGLuClC0MwCgVPNEYiUEa+4EH5ieMnLMKW/zE+000yMK550YvnYsCzQRnvLM9GWc1Yoay8YIrhiQcUry4hBnEsT8pBCIcZBgzCNhHIByZSc+fO9cY2kwGrcwbqdC8S5guGNCsRTNLMo4iRbS+eUmbamDohRt4MITywlj4TGG0YmkB9YfixkkFd8ulB2p06pc3xwloIBmEWPC/yYe3J89pzY7ggP0Ad2upGvmlDkAle4qV9kJfnn38+OlM94agUkBubsFF/PG9dQV8w4xuDli/MhJMwJltMlDPxr3/9y2+A3NMG9FWTfwx3a6PaUKx+4TOWv/71r728sHqA7gBWGqhrYLJPXsBEhckufZG/4Qv+5QYZYBLNhJr7CyGEqGzKarxjwHzzm9/0niuMM4ysL3/5yykDjdhUC0XAyOI70+bVsWVjDEmWnjPBwEn8NzGjxJkSgjNq1CjvzQcGx9q8HIvn1gZYjEZitA2W/jEYgXKmM5zNuwh81SHuSV+3bp33EgJ5EMoyf/58H2Mbj481wjzN+CoUDLd//vOf0a/qUKawbIXUmX1tBs84hgpl4lnwSl955ZU1jGggTMDamdhwC0dALvBkZoNrzBg2DzsGPPdDzuxLJniVWYkwWWOiwDOG7ck+8cXkyWTJwnDIC29uIWnjhHVphltd0qZNm2iveqXGDOUQjF8LJeI5kT28y3XBn//855TxTTvS31mVsE9EYkQyycsEMkbf4S9l5yVV5Ay5RbYzfV6yUIrVL5TL+iYTcNMTRrxPxFc8bHWpHFA/TP5tVYhnYIXzq1/9apTirdg19HPbsq1YCiGEKB9lNd6BlxMJNzBjBo/uZZdd5vcZNMzrXCzEeeOtxkjDqMVjh5FcqsEPT1k5wUjHQ82qhIU6UCcYhHjera7KgRkXpQIDBIMAbyPQvngXS/2pR+rKjDaMakIPgDhvuzdGIBMBDEMMDzNSC2nPcrd9NpDnsG/Y5/zyAYMz9AYzoYl/btEgHMQmj9QVBlm2MLVCCOsP45WJj2GhMyaDGO9437mGfpwtZMZg1cZeiKa/IGvUGR7yUn0tp1z6pdR9wshW53FYFWKCxHNRb4S1ffKTn4zOCiGEqFTKbrwDX+YwLy+DFh4+PDd4UC2MhGVmBsrQs2NbppfCCMXgRUIGHryLxIkT+/rf//3faT2NxbBly5aUpxuDMDRsOnTo4JfNgcE8l7GRCV4Qu/jii/0/1MGYshhpViXSxdGXAjzGFrIEPJd5PXlenrtUYECYgQiEnaRrZ+J9sxkbBmFD9rUivOu8AEv9Y/D94x//8JMgwpIw3nlOZMHeDQjbc/Pmzf6F6Xg5qAtCZApJW2rI1zyzTD5sRSEf8J7zsiwwacZAs/CuOEys+UdYZkQTtoIs2opFbaBvGulCWAiLMVln1crS5wqZMVgF470QIBSF/giEzMQ/L1kM5dQv69evr9Em4cvX1H221cZs5KrzOOhmky1WENBB8Xc4hBBCVBZ1Yrxj1BI7at4qDAS+csHStnnOWObH6DDjmL/8cyH+fXomGLDDL4CQB3ljZIVL0iGhxwzjNZdxTCyoDdTk/+lPf9p7NflCCp8KNOOdZf4wpCZfvvKVr/gXWvmvkOSB0RIusZfzxTVevsPTxvPwXBZqwfOGL9fmC/kQBmOGIwYhRgpgWJuByBI9L8rRVmxjxozxMfDUgZGtnQiXYLIHGDnEPBPSRDw8XnmMP+TBJidh22DEm8FIOSdMmJD6jCL3py1oEygkbSngk6K8/MuzIlsWG52vJ9nKxMvGrEow8aAdeRE1GxilobGLbBPuZPBJTiZVbBiumaDtqQ/alJeXmVgBMsz7BnHioTP2vEzq8/3nP8gCExQMbJ6Ze+UKmcF5wKceeR4mLuleOIVi9Eu+YLizUmWTQ8J+rO/wacp0XwdKR6F1Hoc6ICTI+iZ9GN0shBCicqkT4x14ectewmKg5eUylrqJI2Wg4RgvpvLSFAMKf/kPm9k8gBg05iHGw4rHkPzwjtlgFAcjxc4RcoFhk+2rCXgmiXW2MrK0THpevLW4fLzKeMzjcav5gHFA/CtfeeC5MeDMg4hBysBaLjBO+E+sPI99CYa6wdBlspUv9rUZ8uElZIwowAPKd9mBJXr7+gfGNp+oo63YCA8K48shWzsxGbS6xqjiOox5yoDBbTHmyA552AQCeMkYo5HjXIesEMPOtbQBbWEGWyFpSwGx+3yZiWflBUzaA7mjLTJ5kjHa+K57WCbKSpkJK+HrRZm87gbnmTzZhIjrmQhgpIJ5hW11IxOs3PAFFdqUlzypG4xTJqTp+hj3tbh1npX7kp5wmlxlNvguupUb0v1H1jgYxvaZ1WyT7mL0SyEgX6HXm89IcoxPU+ZLoXWeDnuxFsKV0RCeP/61GTbkVQghRN1SZ8Y7gzH/gdO82LzwxRItL2fiYSfcAUPFwFB49tlnsxqv5PmDH/zAG2wMpgxaDOTEkYcDegheRgzyfI0DwDiijHh17SsT3AsPOd4tPGUY+MXAS6+U1eLdLV8GXwZGnqVcMPhiPHBPNgwfvviT69v62aAdeB6MiS996UspI5u//OYdCCY73A9IzyQFQwnPuZGrnYhhJ5wEyMti2jHszRABvPAYgyE8H21K7HJY79wLWQpflCwkbW2hb5hRSF+gTyB33D8fKBcrBRjEGO2sFGCc5gMvGtM29m4KEzvi3/l8p72cSbum+/qRwb2tD/McrBjwz634Tn6mdmRlwFY3gHTZ7hEHGbbQGUj3H1njMOHBGKWM4cQuDmUpVL8UAjLPhIv8TbaoP3RKvi/cFlPnceibrEBYf6J+5H0XQojKpUlVVVW1FSUaPHjTMEYZnIGvxJTin1iJhgsTbFZnWMXAUE73T6mSBv/1mJUmJsmE5eFUEEIIIZJCnXnehRDJgxhsvNR4hll5SjpMQnjBGfCes0ohhBBCJAl53hsR8rwLIYQQQiQbed6FEEIIIYRICDLehRBCCCGESAgKmxFCCCGEECIhyPMuhBBCCCFEQpDxLoQQQgghREKQ8S6EEEIIIURCkPEuhBBCCCFEQpDxLoQQQgghREKQ8S6EEEIIIURCkPEuhBBCCCFEQpDxLoQQQgghREKQ8S6EEEIIIURCkPEuhBBCCCFEQmhSVVV1KNovKR07dnRHH320e8c73uGaNGkSHRV1iepdCCFEY+DQobKYMkIUBHK4f/9+9+KLL7rnn38+Olp6Sm68N2/e3J1wwgl+f8+ePe7111/3+6LuOe6449xzzz0X/RJCiLpBukfUNV26dHGbN2+OfglRP7ztbW9zb3/7291RRx3l/vOf/7hnnnmmLHZwycNmMNwPHDjgXnjhBRnuQgghhBCiUYDBju2LDXzw4MGUM7vUlNR4J1QGXn31Vf9XCCGEEEKIxgRG/N69e70n3mzjUlJS450Yd0JlhBBCCCGEaKxgwL/88sveNi41JTXeeTlVoTJCCCGEEKKx8+9//9vbxqWmpMa7vm4ihBBCCCFEtfe9HLZxyV9YFUIIIYQQQpQHGe9CCCGEEEIkBBnvQgghhBBCJAQZ70IIIYQQQiQEGe9CCCGEEEIkhIow3vmMztixY93Pf/5zt3jxYrdkyRL3v//7v+6rX/1qlELUBRdffLG7++673S233BIdqWb69Om+TSZOnBgdce60005zt99+u/vpT3/qLrjgAvfrX//azZo1Kzpber74xS/6MvA3X4q5JhM8G8/4kY98JDpSGD179nS33Xab39gXQtTE+gh9lu23v/2t+5//+R939dVXl+VTa6JxY/L2q1/9yp1xxhnRUecuvfRSt2jRIj+2HXvssdHR6nHwzjvvdEOHDq31eBCHfNKNoZmOl4Nc96IuvvnNb/o6oH/+5je/cV//+tfVN+uJejfeaXgEYPjw4X7/iSeecH/605/cpk2b3Nvf/vYoVeOjT58+7sc//rG79dZboyPl5+9//7v/J1utW7dOGZj8bd++vd/v2rVrqqPyL39btGjhnn/+ebd7925/rFiKedb6qB8hRPlBB/3lL39xDzzwgP9G8oc//GE3evTo6KwQpWHt2rVux44dfkw7/vjjo6POvetd7/L/FfOoo45y3bp188e6d+/u2rVr52Vz48aN/lhj4Etf+pJbsGCBGzVqlGvbtq3r0qWLe/LJJ33/5H/64MT7xCc+EaUWdUm9G++f+tSn3Mknn+yN9UmTJnlD/qabbvJCM3Xq1ChV46NVq1bune98p1cidcXDDz/sXnjhBW+U00nh3e9+t//92muvuSOPPNK3FRx33HHusMMOc//85z/979pQzLPWR/0IIcoPRsHvf/97N23aNO95P3DgQMqIEqKUPPPMM34MMQ/7iSee6P+VPeNds2bNvMMKqqqqXMuWLd3OnTvd+vXr/bHGABOWI444wo/1OPe+9rWvuW984xu+bz700EO+7qgXUffUq/HOjLdXr17eu/K73/3OPf3009GZmmAoTp48ObVcw5LWzTffnDIkb7zxRh/ugfGPsme5Fa/sRz/6Uf+X3yzxXHnllT69LQ9xjny5lnCdME/KxnKt5cf52bNnu7PPPtuftxCT7373u+6HP/zhW+4BpOUarmX70Y9+5E499VR/zpbdCA3iuazMnCdvQj0oA89eqtCPfHj22Wdd8+bNU54IjHfgOJ30Pe95j//dqVMnt2/fvhptRgf/9re/nXreb33rWylPPZ6zX/ziF/452QiRGjhwYFHPWmz9mJxQ5yyVhuUwzj333FSbWZug0EOs7cnPsLw5B8gR8mR1wVJsONGg7F/+8pdTMs1fkx08HMjlXXfd5c/xl7AyIRob4X/stjCHMPQs3hfRq/QlHECMExy3vok+p7/Tr9Hrn/vc5/w1gK5Gj3ON9Uf6p+mvT3/60ymdQX8mhALQPzfccIPvo5wjDV5KkQz+8Y9/uP3796ecVSeddJL3uDPeYZfghYfOnTu7pk2bemM/BM+zjd9z585Nje/ITTb7oVgGDx7s5Z882bApGJ/KMZ7Ql+hnREB88pOf9GOhTXJ4Tmw3ViLWrVvnj4m6pV6NdwxBvLp79+51W7ZsiY7WBKG87LLLvKDQoRDcp556yodtcNyECcOI/JgEMEPkOAJKWMcf/vAHd+jQIffBD34w1bmAGTYeXIxoOiWGKkIKn//8591ZZ53lXnzxRb9s9Ne//tV16NDBfeYzn0kNHMA1lJ2ORGf/0Ic+5OPnuA8GKyEoGPUrVqzw17PSYAPC4Ycf7p+D81bm8847z/35z3/2nZ7Z/7Zt29yMGTP8c9UF1AMDpnkcMNJffvll9/jjj7s33njDl/EDH/iAa9OmjQ+XefTRR3064BwKjufhmve///1e2QDKkXb7wQ9+4D381MvHPvYxX6+FPmtt6gc5oVx49ig75SCGETDiP/vZz7qjjz7aLwvecccdfiUCD0wh0L7kQ9uyxMikhf+wxqBgIF9nnnmml2mU+q5du/yk8sILL3QjRozw8sO5mTNn+jwKLYMQSYcJMH0S2Uc/5gt6le0rX/mKu+666/wx+j2hdqtXr/bjAf3xnHPOcYMGDUrpavQzoTroFvRX//79/RiDPkeP8Z8S58+f75YvX+7ztLGpR48e7rHHHvPnDh486P7rv/7LXysqH3Qrbc04gCGOkQ6MdxwnZJRxjUka4yLGvoGMve997/NjP/JJWsZvyNd+KASMdN4vwxOOcc74xKoUv8sxnsybN8/97W9/83bNsmXL3E9+8hP/nExwGN94fsrBeCzqnop4YTUbdCiE9l//+pd/kRJDe8qUKT7u7JhjjvGGpEEHwbj/4x//6DsaxiUvnRAXjRGPR5nQD4OOxflf/vKX3mNCZ6WjYsyhkF999VX3s5/9zJ/De4OCxrALJwCbN2/25UKwMXxR6HitmSiQFsGmTJSBtBjDPBOg6BlIyB9jkjLzTM8995yPxWPCQce577773IYNG/w15YYyMpmi7HR+QlOoO5YKqQ+MeiYseOEJdcJrYVCfGKo8L+8uoCCoTyAEijpkEoMXgrZh4obiKfRZa1s/q1at8mXEy/bSSy+lYvxpM9qPMuJZ44VcBv9Cl0lpX9qZiQWTFWSWekG+APlAvpgY4K1B+XNP4HgIy7TU3cKFC6MjQjRs0DnoClbxCJfBgKCP5AsGDWNAfCUXwxw9zLZmzRqvexhb6PfcE6eC9Xs89KwsMtFHFxrobMaE73//+6mxidBBPP04LVauXOn1Wrwfi8pk69atfixBFnAw4XBh/EPnM+7hcMFxiOGN/sbwNZjMMX6HNgfjN/Hx+doPxYIjDZuBVR8mpuUYT5joIu/wyiuvuAcffNCP98OGDfOOT+SdTdQP9Wq8MztE0WJUY0ClAyMIIxDBpKMBAsRyDcs5dh0dyYwjlC6GHYJn19i5EDy3puDpeOSBR4YOhhGHwD7yyCP+PGBw0lFQzgblMAOWexp0YsJImImzVMWGYuAYeQD347lsP7y+vrCXeExpUQ/M2O04HncLncGIDkHpkQ5Cox6Y/bMMh7eAcBoGy/oglBMUYFjnKGjkMfSuFEM6mTX5AmQWGcJT873vfc/LxpgxY/w1yAdeDjw/TJJY7iT8xsKXhGjo2AurTPIJhSTMLa5rskE/i79EH/Z7QD+h6+lv9HvO4yAymNTTZ+mTOClwEDDe4GnHI4ljA2OPsQu9zgSdfozjhzzZRDJgfGNMxuhGJzPOMY5xnPZnAscKPca86XPAvsBBA2ZzAGEq+doPuSA9cspYhYMKwxy7ZeTIkd7DftFFF/m49LocT3CAUh76iKg/6lXD0BFYhkHwMHIR+jh0DgwqjD3z4tIx8PxynA5VLIR4WJ4YVChiPLnbt2/3yh0hDWfJGK6cx8OcCwYCBoR77rnHh3XYhten0mPEWEGgbvB6Ucc2wWEQo47wNqGs4vF/mRgyZIgPRyJPvBAY8TZpqSRQrpSRJdJs0K4oapSjgYI1mJSSBnlBVsHkC1B6THSQM+QhlA88IhgqvBREHD8vBTEZIMRIiMYARjNeRVYzzRkA6F76HQaN9aWw32WDdHYN0DfJC/1GPyRPHC6G9Vf6KWMUK7QYRIRAkBfhNugKyooeDPswW12FOYraw/jGeIZBiy1i4xpOHNqX8Y6JW74fZ0D/F2o/MGHlXjgOCbcxcJQhh8go8O4G718Qf45skpZJZF2OJ+SFM868+6J+qHf3AMtOGLrMbhE8viPKixe2z1ImBjwCN2HCBB/DRSgDb39j/LOUUyzMVMePH+/jyBBGOi5x2cQ0MuvG+0xsF7NbvD+EVmB0spyUCxQCHZilVfv01Omnn+5j4uncucD4Y3aLArjiiiv8TLuuMKVF/aBU7NNYKC/KxCSLeqBt8oFn4PkZLHmuvn37ekVmFPOs5agfJlXkyUTy2muv9S/DsdyJRyaE0CK8H4S/cG/k9b3vfW901vllftqY+ElklXyQITPkqUfyoB7x4KGc8f4RV4vRcPnll3sPCbGF1D9lEqKxQygD3nP6PJ8Wpl/xgnk+nxTGA8nLglxz1VVX+fGGvPCM0u/pZ+hq+j19lXSEUnCO44TFYLCjFy2UgHEJLy2hhOg0dBy6ng8lcK1IBrz7hOPGxiR7/45xEO854yDtHg/DygRyWqj9wFjKOIsNMm7cOD9ufOc733EDBgzwhjlGN9cT1kV+jAmMQYD9VK7xhLTINRMYxjrGQr4IyCQifOFb1D31brzjWWGpByWKJwNFyWwS4aPjYAAzy0SJMjPmxSJeEuE3xzlfLBYecskll/jZK2VgSRTwDrN0S8flJVOUM55nXvjIpxMzK+XFJ2baDDTMeul8+Xjtgc6MEmC5jkGjLsNM7CUePEzM2m2pkOfmOEY4yilfmGDhzSBOjg7PM9G2RjHPWo76YembF3DwxvHCGRMCDAV+hxA7yzNhEDBQo9BQngb1RXgQq0K0OV4OzofL9njykGFTirYygVcemeZlPSarKGOUOnG4QjR2CAmgjxDLe/7553v9hI7NBZN99DfX0KfoY3jR0fm8l4TeRzfz0h9fi2Fld+nSpT6eGa8sHlG+GMVYgUGDnsDJw+oA/ZNxi/5qL7bm46ARlQGygGww3qGjbXxHj1u4FsZ9+HGGXBRjPzAmII+s6JIeO4f7YkdgTyCHvCSK8Y7TkbEPGUROyzWe0DfIo3fv3jXeLxT1T5OqqqqSBVqzRBQaMZUKAszb2by8QSdoqBD+YcpHCCHqikrSPbZ6hsGtSXDDBQdcEuwP0fgw53Ap0Vs1QgghhBBCJAQZ70IIIYQQQiSERhk201hQ2IwQoj6Q7hF1jcJmRKWisBkhhBBCCCEaMTLehRBCCCGESAgy3oUQQgghhEgIMt6FEEIIIYRICDLehRBCCCGESAgy3oUQQgghhEgIMt6FEEIIIYRICCX/zruoHJo0aRLtCSGEEA2XQ4dKZsoIUXJK/Z33khrv/5eX27hxY/RL1DdqDyFEfSDdI+oayZyoVMohmwqbEUIIIYQQIiHIeBdCCCGEECIhyHgXQgghhBAiIch4F0IIIYQQIiHIeBdCCCGEECIhyHgXQgghhBAiIch4F0IIIYQQIiHIeBdCCCGEECIhyHgXQgghhBAiIch4F0IIIYQQIiFUjPG+cOFCd//997vBgwe7Pn36uKVLl7rVq1entgcffNDdcccd7uKLL46ucKl0bOzDBRdc4O677z63fPly9+EPf9gfE4Vh9Tpp0iT/e9y4cW7lypU12oP2CuF3eJ7Nri8l5Bnew2SmPpg1a1ZK9ijDihUrfF3VF+n6DVu8rbJRCc8hGi/p9Eio38sJ/bmQvtKYaSh6ohQ6s1ji46wQhVDRnvdXXnnF3XPPPW7ZsmXu6aefdp07d3ZXXnmlmzx5cpSiJieffLL7zGc+45o3b+4WLVrk/vSnP0VnRG3Zu3evr3cUDn87dOjgB7sQlB7nbZs6dWp0pjSgUAcOHJgqBxsDSK9evaIUdcv48ePdkCFD/HNXEsi+1Q9lbNGiRb1OcoQohLgeQffccsstmlBmgbpBF6qPF4d0pkgaFW28v/baa+6uu+7yxtpnP/tZN2PGDLdv3z7Xv39/d+6550apqnnb297mLr/8cm9UosTihqUoHUym1q9f79q2bRsdKR4M8nw8D7QnCvXLX/6yv7/BBKHUk4RKg/op1hOEIcQEY/v27W7o0KHR0cYDRs3dd9/tB2WRTEaOHOkef/xxN2DAgOiIEOWjsetMkQwSFfP+m9/8xj322GPeiOvWrVt0tJrhw4e73r17u0cffdR997vfjY6KhgCGV9euXd2qVauyerlJFy6BEuoTeutsWZyN8+ZZ4bhdE076LH14PjSiMaqzLemH14VeHLsOo5JzdbFsum7dOl+HVlbuaWWL1xO0a9fOlzl+nmeIL5fH6yHeDky649fE69Tq2chUPrv/3LlzU9eKhs/atWtdmzZtUn2IvyafbCY7cVmE8Fim69IRyiBbKGsmh6RJ10+sDyD7dp7rw74R73fxfhPej3Lym83Oh888duxY17p1a3f99dfXuC6E9HYtG9dBurLmKttFF10UnWm45Kszqe+4HIXHMl2XjngbhfmSD21w4403ps7z28oHmeTb2g+9SRnsuvB+XGf9S1Q+iXthdffu3d7L3qpVq+iI8/tnnHGG27Rpk7vpppu8d16UD5RP9+7d3b333hsdqQZlUA5FgCHZrFkzt3PnzujIW+HeU6ZM8Uvs7LPhoR81alSNclRVVXmlzHk8Kwx2wG+WTnmueHrgvC2nhgo1E6RB8XMN17JScckll0RnnWvfvr175JFH/Lm6WDmg7qhD6pJBIAw/op6GDRvm94F0nJ82bVrqfLweM0F62oG+yD4b4W7UmxGvG9rD6hnyKR99nt94ZUXDZ/Pmzf5vly5dvBxOnDjRG8/IAHJy4okner20Zs0aLx8WSsf5vn37+ok/sp/pujjIIPeZM2eOT5uu7+fTT3AocZ57sSpM+M/ixYt9+i1btqRWE/gd9hu7H+UwQt2FrjrllFN82dEflPOll17y90nXJ7iGcFLrc+ho6oV9w8rKMcpmfY4t3qfJK+zTDZF8dWbcyKdNmGguWbIkpy4LQbYYfywtf/kdygDjBjLLeTbGu2uvvdafy9YvjI4dO7oJEyb4lQX6COftfgsWLIhSiSSQOOM9HQcPHnT79+/3nay+4p8bOihqDF2UPsqH8JXZs2dHZ6vhnCmVs846yyuqdKCMzMhnQGLVhP3aGPy0O4p2/vz50RHnX1res2dPDZnYuHFjylhG6TLRQ8kCA/+BAwe8gWCQngEPKCNGQKio08E50oQrBdyDOrTn27Fjhy9fJkhnHhTqh3piny1U5sXQo0cPP5mw9qEc9CGrJ+oARR6ej9djJqwdrE6BNmGQgXR1Q3tQz0Y+5YtPHEO4h3kJ8Ugee+yxfmDkd2h8iWSCHCCP1n+Qkw0bNriePXv6fRw87IPJI30723VxkEFCdUzHITvxvp9PP8GQ4jwbzgKMYssT/YNOID8rp/Ubux/lMELdxb14Tsa8fCC/Sy+91P8FVjLMMDWsrED/svPxskHYpxsD2XRSfMKIPNE2pM2lywzTi2Eb8JdrQxlg3Jg+fXr0q7qdbEWKPHPJd6h3gXLbeIdc2r1F5VNRxvsbb7zht2x06tTJC3/ohSU2/ne/+533BhAb369fv+iMKJZ4HaOomaGbITtmzBj/txgYgFBWbAxI9rJQJoOfcjBQZhuoOEeasMwoKcqNzKSDtCjZ8JpckJa6yQZladmyZWpSwsbEByUbTgyyQT1QH9QL9UM9WZ3ZAF4IVj9HH310ymCwsmHQYuBmql+rx3xI1w4hnGfAyHSechVavjhcg2eJPPBIbt26NeVxNPkVycL6DR54+jMeSJuQsdG29g4OBg1pOIbhggFDf8p1ncExZHDbtm3RkWqQWTNo00F+2frJrl27/JYO8rSwFysb+sP6QikInSZManmWfMjVpxsq9ty5dGZoJJMGOUMGTY4yXRfC73R6ERnMJgP0B8oI+cq3gbHO5HP06NE+bW2dQqJuqQjj/cwzz3RHHXWU94LincgEcXbEuj///PPuD3/4Q3S0mgceeMDPWhFUvkgTLsOLwkCRoDDSQSdn2ZflvHTLzeWAe7JkG3og4mQbWOODcG0g/6ZNm0a/0kNZmBTYkrttTCrjqxV1Afe20IHbb7/dGxjh1xVsyzQp4FwmeUgHE5ewHTC8QkMh3k5h/rR1oeUTDR/CS8wIpz+Hk1nbLFwETyj079/fGzR4mSHXdYbJINfG4XgmI5a8CuknIeQZTjJtK9XXrDDM0AGWP7rJjL5cpNOt8T7d0KCOCtGZyBjygswBMliILqOOaY904xd5ZJKBsB3yle8QxiPGJRxzhPfIgE8O9Wq8X3PNNX6WSAwWXgc+B8kLqcbhhx/uPv7xj3tvxC9+8QufDs/8L3/5Sy+kcX72s5+5Z555xr373e92V199dXRUFArLbygSGwTj0OFZzssUu1cOWLIlZjT+gg7Kho2yUuYwrpzjXJPpOfKBeG2bpLA0iYKLLz3G4RyKtC7rJxOUmfdAGABswGC5nuewEJ44DAbhlz1slYXlWBtkbCnW6sSwug6/0kBeNuHB+GKCHsbbDho0yHuMjFzlE40HZIQ+j1E8b948fwwZo19nMjSs/+EUApPJXNeFIIMWUw6Ug/5Mvtb3s/WTQqFs9JHarGhmA8MyNALpv/ka33h3SZupTzc0itGZJmPIXCgj+eoy0uOgCtPyl9/kYaAn0ZdgMmmT2kLkG0hnadHrhNyI5FCvxjud/9RTT/WK5eGHH3a33nprdKaaI4880p1zzjnuvPPO8zPMhx56yH3pS1/yX51Jx3PPPed++MMfekHEANUSeWHQkVEiKIyZM2emFFA6bCC1l2UAZcI1tjExywVegXw8qignwkhQqOGyIEYggyX7vFTFIG/neA5ewOLaYiHGEAVJfkwimbTkU15kL17WTF+ByAX3y+Y9iROG69CmLI2G15MfzxEu0YeTIozzV199NXWOVRaTBzZWXjBs2OcFKb7wZFDX3M/OsxHnS10YFrNpdcOKSjgZz1W+QmCief755/s8RDII9QgywmQ59ECbjGHcWLr4VzzwhGLo8FJ4IdcZyCDpCS8hHeXAuArHlGz9pFC4hmvJw/Jjy9cQQ85Z7aPPpNMz5vywfBlzKX8+UA/o0bBs8T6ddGqrM/mN0W4vqhqF6DJkK0zLX6IJyMNgPMJm4jwySRuYTBYi34CdZGlNvsN7icqmSVVV1aFov9YQqpLOIy7qB7VH7UChEYZViOEs3gqDx4gRI9zNN9/sB5g4DGRMvDDSNHg0DBq67sHoueqqq9ydd95ZL6Fw4q00dJljUoGzCl2JwS2SQzlks0F8bUYIUZlgmLNyYV9fSAehAsTJ29KzEEIIITIj410IUTIw1lkWtmVbW9oNVy84ZufZWI6vbXiTEEII0VhQ2EwDRu0hhKgPpHtEXSOZE5VKOWRTnnchhBBCCCESgox3IYQQQgghEoKMdyGEEEIIIRKCjHchhBBCCCESgox3IYQQQgghEoKMdyGEEEIIIRKCjHchhBBCCCESgox3IYQQQgghEoKMdyGEEEIIIRKCjHchhBBCCCESgox3UYNx48a5lStXutWrV9fYJk2aFKUoH4MHD3YrVqzwZWhoZKpXtlmzZkWpiqMh15sQlcTChQv9JoQQ9YmMd/EW9u7d6yZPnuz69Onjtzlz5ngDUYNWdjDCM9XR7NmzXb9+/Xx9Llq0yO3YscONHz/e/+avEKKySDcpHjlypN+EEKI+kfEucoLhOXXqVNemTRt5d4UQQggh6hEZ7yIvli1b5nbv3u169uwZHXE+lMZCPwgJwbDHk7x06dIaYTbxY+muywTebEvLFoaYmKc7TBN6vrkP9507d64/Z/cK7x/3lONtu//++1Pn7X72DDNmzEidD8tOPqSpqqry58Lnz4ewTGy5ysU+x9JBmcIQnULLIkR9Yf3MZNf6ATKNzFt/s/5g/TNTvzXIx85Z3zH9YYR6yvRE69at3dixY/1xzsevydZvuQeee3SG9cds/VYIIfJFxrvIm127drm2bdv6fQatgQMHpsJrMO6HDRvmz23atMn16NHD78OgQYP83+XLl2e8jv04DJTdu3dPpeUvv8nDwFgGzhN+0qJFixoDd/v27d3rr7/uzz/++ON+IKZs/CYcqEOHDjUMgokTJ/oB1+534oknps5D79693bRp0/z5LVu2pMrOUjqD88aNG/1vViryhefh3pSHa+PPYeVav369P8/G/hVXXOH3Q/hNmahX9nmGnTt3RmeFqFyQ1ylTpnj9wb71A/oHq3/0S+tvQ4cOddu3b/dpcvVbM6g5x/bAAw/439mw1caXXnrJ98shQ4b4/h2Sq99Cs2bN3EknneQmTJjgz+/Zs8ddcskl0VkhhCgOGe+iKDCAMSAxEgHD/ODBg65Xr15u7dq1PsSGgQ1Iy4DM4JftuhAGw65du/oB2dLyl2vDiQHGMoMikP+qVav8dVwPxJbPmzfP71Ouffv2uXvvvdf/XrNmjR9M27Vr539TBn5TJuB+GzZsqLHaEJaHfBic7fpi4XmYWGAwQPw5rFz2HLBkyRJ/73i9GZ06dfJ/KavlK0Qlgywj08g2WD+w/m798vLLL/fG+fz58/3vbP0WAx5dZGnhuuuuS/Xh2pCr38KBAwfc4sWL/Tk7j4Fv54UQohhkvIu8weuO952BxwYgG5TwNh177LHekGUwI8SGQRUDnrQMyLmuC+E3A3nca7xt27asgx/pmQykY/PmzX6Q5286MHjx1FMmKx/3sdWGcmB1wnOF8Bw2MaBcvERMeQzOYxjE6400eC8xINgPl/GFqGSQZcJUrr/++lT/Gz58eA2dgSHcrVs3H35iBni2fkue9JNSrz7l02+FEKJcyHgXeWEeLIxwBkeMSb6awiAWbhYusm7dOu+ZwoAnLQNtPtcZmYxTiBuyIaRv2rRp9KswGIgt7CXcyvl1CasT85SHcJx6yDRhYZKSzighT5b5Lb0MeJEEkOWtW7f6lbSw/4UhKwMGDPDhan379k3Jd7Z+Wy5jOp9+K4QQ5ULGu8gJsZ3EiofeLoxzYtctNCYOISkYnAyypDVyXWcwOBJqE6blL7/D/Dp37lwjZp3zLE3bYF8IlJkY+DCmvi7geU455ZTUc2B4ENuLUcJzUK6WLVu6MWPG+PPAPpMUzoVQB8TgGqyUCJEEkGVkOpTzEIslxyjHQLZ02fot53AChHHmN954o+8n9C+uM/1Cfnjw8yVXvxVCiHIh4128BYzucOkaAxxvWOgdZ5/48zCdfZEBMPIZYMFiUSHXdSHcM0zLX2LOw3IQ086AaedJH/fi5wtlXrBggR/MrWy5voYTwqoExgDXFTIBoLzcmwkS12KkMHGxWH7O8ZIsL+tauQiLITyG/RA8fsccc0yNdNOnT4/OClG5IK8zZ86sIeds9CU2DGV7X4UYdtLRV7L1W/bpJ+g0O0c+9BP6HS+9mn5p3ry51ycG+RI7H35tJiRXvxVCiHLRpKqq6lC0X2v48gfLl6IyaOjtwWBJXKv+aYoQlYXGAlHXSOZEpVIO2ZTnXQghhBBCiIQg410IIYQQQoiEIONdJBZiSxUyI4QQQojGhIx3IYQQQgghEoKMdyGEEEIIIRKCjHchhBBCCCESgox3IYQQQgghEoKMdyGEEEIIIRKCjHchhBBCCCESgox3IYQQQgghEkKTqqqqQ9F+reFfwAohhBBCCCGq2bhxY7RXGkpuvJe6gKJ41B5CiPpAukfUNZI5UamUQzYVNiOEEEIIIURCkPEuhBBCCCFEQpDxLoQQQgghREKQ8S6EEEIIIURCkPEuhBBCCCFEQpDxLoQQQgghREKQ8S6EEEIIIURCkPEuhBBCCCFEQpDxLoQQQgghREKQ8S6EEEIIIURCqBjjfeHChe7+++93gwcPdn369HFLly51q1evTm0PPvigu/XWW/2/mQXSkT5MwzZp0iR/XhSP1T91OW7cOLdixQpf33E4TzrSs5+t/q29aOdSE5ajrojL6MqVK31d1QXZ2qQYyIf8MpWfNps1a1b06004ZvUeyowQxYKsWZ+yrVJkynRYpcp4fejBpBPX42y10eWl1s0NDfp3OWyAEMalct+jEqhoz/srr7zi7rnnHvf73//e7dq1y51++unu85//fHS2mp07d7ply5altscffzw6I0rBmjVr3IEDB9zQoUOjI2/So0cPt2nTJq/wYN++fe7UU09NO3hw/RFHHBH9SjYo5ptuusmtWrUqZbjedtttrmXLlv58Y1Ee48ePd0OGDEm1vxClAHmyfsU2derU6EzdEjfEGF/OOuuseiuPKB+LFi1KyVu/fv3c7NmzozOilIwcOdJvovZUtPH+2muvubvuust94xvfcHPnznX79+93xx9/fHS2mj179rjJkyentiVLlkRnRClgIMVA79q1q1dsBgNamzZt3Nq1a6Mj1XCsV69e0a9qSHviiSe6rVu3Rkeyw33uvvvuor0f5aZLly5+QsPExkDZf+9734t+CSGEEEKUh8TEvB9++OGuSZMm7vXXX4+OiLoCAx2vcmiUsx83YJlI/eMf/3ADBgyIjlRD2t27d7tt27ZFR8oLy8dMOmyzkI90y8rhsUzXxdm8ebNr1qzZWyYpgMedvAjvIg/y5He4NGvhYcBfvHszZszwy7Xx88B+GCJ22mmnRWeqyVRuuy8TX/K254yX56KLLvLpCyVdfb7jHe+okTdpDMrFpIzztjSdrc7j6amneJvUxTKsqH9o91DWkJswvCGUo/A4xOXd8kFuQnmyvmhyOXbsWNe6dWt3/fXXp/o118Zl2vJlC/MjHenpf3Y+l6yWIr+TTjrpLeW0sof5ieyUQjeHIFfhSg7QHmEbsm950V4m7/H7WDtau8Z1fChH8TIbHKM8Jk/cO16euMznkkG7PnwOKyuE+dv9s9Uv97N87L7h/fIhrAs28ow/F4THbN+uyVSH9UlFG+8Y7B//+MfdDTfc4D71qU/5YzR2iBlJbHGlLUoDBjqGec+ePf1vBLtv3741QmaMe++913vfrR0s7bp16/zvuoDVGVZhuDfLod27d/cdj+cIjW4rG+EvPEem6+KwfL5gwQJ/Lt6pWRIkr40bN/p8WGLnfk8//bT/TagJdRmGIVEmBtwJEyakzl9yySX+HHlPnDjRy71d37FjR3+NkavcpCdvQlxgypQpvu1Iz9a8eXPXokULf662nH322W7x4sU+3zlz5riBAwfW6JPt27f3521pOlfZw/TUdbgCRDpkDZkTDQfa13S69S/kfu/evW7MmDH+PP2WfogMMdgiZyZHHB82bJjfZ4vLO30xF/Rb5Pell17y+aZb6scoQF7tvvzld2gQIL84nDhPfp07d65xPqRU+fF8PC9hjQY6CJ2hlen0DB8+PCVzGG3UL9RWNxcC7YgeJh/yu++++/zx+H2QC1ayQ70a6njamvMmR4xVmaCsrVq18unyDWfJJYPYZIz3nEenn3LKKRntsmz1S55hv2Yc6Natmz+XL1zH+GZ1SvuiOyDeRwYNGuT/Ll++POeYXQlUtPF+5JFHunPOOcd99KMf9b+/9a1vuZ///Od+3whj3omNf+qpp6IzolQg8Ai6GU7ZBoINGzZ4L7sZ+mGHyIXNkPl77LHHes9XXJnmA9chD2Ax+4S6cCwsmz2HrR5kui4dGA0YlChU88xlgrRXX32137e6bNu2rf8N3AfFxDk2JhMocatrFIfVH+dJyzVGrnLb5ATStd38+fO9YVQKKAfPC/zdvn17qr5hy5YtqfOQq+xheqsDkymehfTWfqJhgKwi+2zEmJt8MEnDKPniF7/o5dVizxmA169fn0qHnBw8eNDLh8nKvHnz/F+gL1p/KBbKhj6k/9t9+Us5QoNgx44dqXsjx8hzp06d/O+QUudH/w6dKPRBdJ/lLWqCkWkyF77HU1vdXCiscLdr187vE4ZJnvH70IaMs6FeDXU8oONNjyInmdqdshbq/MglgziurG9SZuTOnilOtvqN92vuVeg7jeR56aWXpuqGKALqhvKwTx8xZxH3Y2wmLffKNmZXAhVlvL/xxht+MxCSL3zhC94o79Chg/vYxz72lpceEWpmZmwY93hqRO1h8GNiZDAYIPQoklwDgQ2ydIqwQ+TCZsf8JT6eWX1cmWaCwdzSMGDZMhyGdehVpmwoGvLlOVCC9hzZrssESorykpZJRybCZUTunS+UNXy2dBRSbpQWCjNs23LCi+bZKKTspEGWzJjhb3zQEg0XBlT663HHHecnnEBfQmb4ixyw2eQfWc+n/xQDeaMP4/2I0EArTyGUOj90mjkquJZ60ApVaSm1bDGWmDMojCLgPni7zbnFRptmMibpJ3jbR48e7dPGV2aSAN545L7YUNtw3OH5rd5wFtHPgHqij2DTYKtwv9CpVeyYXVdUhPF+5plnuqOOOsp/rQRPXch//vMf9+1vf9s98cQTvpIvu+yy6IwoFwwkCHKIDQbE9OEhyhYGY53iggsu8DPbdB76UoJyM1B4I0aM8IqQDsekDgVrmJe2f//+/jp74TbXddmgc2ebmaMEUCbky0b6fEk3eNtAD4WWG+OAa8nDwENj+ZWabN6KYurcvCVcS73I6954YIBF94RL2PQlZCb0nNqGXBVr/OaCfsQkOOxHBuUppI9DqfMDdDT1ha4D9ZXSkks3F4PpQr5eNmrUKK/nuI+FYYZbtjAXxmBWhtGphJ4k0YCHcGyHfLzfYRqemzAZcwziEKSfGfQRnEDYlvQzc+TVZsyuK+rVeL/mmmv8bJJ4J14MIsbosccei86+CUY9Syv8Pffcc71QGiwzMVO17YorrojOiGJBkBHwuLI3QafOcw0Eljb0bJcDOlY4mUB5hp5lniWciNAJUYZMGMGeI9d1IShUXrIxrAzpvMycIx/uab9Jmy+UB2PVlv+53mL2oJByg71sG8bv8YJx06ZNo1+1g7JRRkBxsmKWafJWaNnBJoYXXnihnzCVU7ZE5YBModtZaZk5c2aNmF/6PgaKLX+H0L/RV8TKG/Rd8qO/0hdNXom1zSV/BnoE+Qvvy19+my4qhFLnBxY+RPz/I488UpEGSJLJpZvjxD90gPwSD24glybTpEU3AjKMHs3XACedpaWMTHbzhXGKe5kM0m/w+tc19t5G+A4UdUN8fTZIS5uYUy6+OsJKVDi5om7p87Sb9TPasTZjdl1Rr8Y7BgPfBaeCH374Yf9PmDKB8U6ad77znTW+joEBQIPZRoykKA46PELOgMEAGVf2CLqtjuQymhg4CH2xTlQI3Pf888/3hlom6FDEwjP5o5PjsQCLC7QlRjolnTeEMqGQwgEtn+sMFGvv3r19OjYrA7N7wFhFAXIOxY7BYS9E3XLLLX5AzRfqAC8Msm3Xo9hMsRdSbqDdpk2b5pUi6dmIWcx2DVDflp6N+6Xj+eef92UkDWVm+TaTrBRadgMlS/hcMbIlKp90snbttdf6c8gM8kR4JGEBDOj0fWJjcd7YNfaeTDp5xwDgr8XtmvzF+4FNFMk33Tst9Pfwvvwl7MF0UaGUOj/yMAPEnBQiPeELq2z5GMq5dHMcZJH2tHsxqXryySejs869+OKLPqyDc7Q9Ms49uM4+kGDlC8Nq4mCwW1pkOxwfc0E6xneTQV72JHy5PqA/hGWJ11cIz0t9hfUG4VjMhq0Ztg91a33exiPS1WbMriuaVFVVHYr2aw1vGbO8IyoDtYdoiDCwYujzFRGUq6g8pHsqA4w3wggawz/Gkcw1fCycxRxlSaEcslnRX5sRQogQPCysDOlFVSGyg2eWFQe9qCoaAjhtWDXTims1Mt6FEIkArwvLooQWFBtKIERDx0IKCcEgTMNCCIRIEhbGaxuOG8KUJM/VKGymAaP2EELUB9I9oq6RzIlKpRyyKc+7EEIIIYQQCUHGuxBCCCGEEAlBxrsQQgghhBAJQca7EEIIIYQQCUHGuxBCCCGEEAlBxrsQQgghhBAJQca7EEIIIYQQCUHGuxBCCCGEEAlBxrsQQgghhBAJQca7EEIIIYQQCUHGuxBCCCGEEAlBxrsQQgghhBAJQca7EEIIIYQQCaFJVVXVoWi/1vxfXm7jxo3RL1HfqD2EEPWBdI+oa4qRucGDB7urrrrK3X///W7gwIHuiCOOcAcPHnS33Xabmz17tuvTp4+bMmWKe/755123bt3c7t27/e927dq5iRMn+vSwb98+N23aNLds2TL/265r3769//2Xv/zFnXzyye7OO+/0+c6aNct16tTJNW3a1LVp08bfb/PmzTXy3LFjh89j9erVPn3btm39cZ7T7jd06FB/LyDd+PHj/f64cePc6NGjff6waNEiN3XqVL8v6p5y6EN53oUQQgjRKGnWrJk33DGGMYQxwEeNGuUNe6Njx45uwoQJbsiQISnDff369T49G/tXXHFF6jdG96ZNm1K/O3fu7Fq0aBHlVg2G/eLFi12/fv28Qd+rVy+3YsUKn37y5MmuZcuWbtCgQVHqagNw3bp1/vz27dvd9ddf74/zG+O8e/fuvsz8HjZsmH8Oy2vnzp0+rWg4yHgXQgghRKPkwIEDbsGCBSmv+fLly92ePXu8MW2sWrXKe7aB45yfN2+e/w1LlizxkwDOsbHPMWP+/Plu79690a9qtmzZ4o12A8+4eccpCwY63nkDz62dx4jH+273WLNmjX+OLl26+N9g15JXeB/RMJDxLoQQQgjxf2Ckxw3tEIxizpsxD3i2MZ7xyrOxX6i3Gy/50qVLfb5seNozQd6E8KS7B9fi+e/atavfX7hwYXRGNCRkvAshhBBC/B8Y0fEQl5Bt27b586QLIVbejGlCXjDiDTzieOMzQV4Y3Hj42WerTYw0RjshPlZGGfANDxnvQgghhGiUYFQPGDAg+uXcmDFj/F/CZ9JBiArGuaUD9nk5lHNswMukBvnby6PpwNCnHGb8E7veoUMHv18oXDtnzpzol3O7du2K9kRDQsa7EEIIIRolhLi8+uqrqXAVXvycOXOm308HMeS83Eo6u4YQFfsyDOeJoT/llFNS54lvzxaKwzUbNmxwY8eO9el5IZa4+mJgAnDMMcek7k3Zpk+fHp0VDQV9KrIBo/YQQtQH0j2irilG5uxTkfYJx3LBpxtHjBjhbr75Zm+oi8ZFOfShPO9CCCGEEGWAuHM+3cgLpjLcRamQ8S6EEEIIUQIw1sOvxvAPlgiZGTlyZJRCiNqjsJkGjNpDCFEfSPeIukYyJyqVcsimPO9CCCGEEEIkBBnvQgghhBBCJAQZ70IIIYQQQiQEGe9CCCGEEEIkBBnvQgghhBBCJAQZ70IIIYQQQiQEGe9CCCGEEEIkhJJ/510IIYQQQghRTam/865/0tSAUXsIIeoD6R5R10jmRKVSDtlU2IwQQgghhBAJQca7EEIIIYQQCUHGuxBCCCGEEAlBxrsQQgghhBAJQca7EEIIIYQQCUHGuxBCCCGEEAlBxrsQQgghhBAJQca7EEIIIYQQCUHGuxBCCCGEEAlBxrsQQgghhBAJoWKM94ULF7r777/fffrTn3Z33nmn+/Of/+xGjhwZna3mnHPOcffee69btGiRGzFihFu6dKlbvXq1W7x4sTv55JOjVNUcccQR7o477vDnSdenT5/ojMjGuHHj3MqVK3292TZr1qzobGWDDBVTVq6RjJSOwYMHuxUrVnhZqgu4D/fjvsVAu5suiW8mF8gWW10Rl8lJkybV+G2ynqvs6Ma6LHdtoazhM6CL6kqO4sTrvNzUdb8pJchikuTMSNd/atvmpWjHctenPTcy3phIch+LU3Ge9xdeeME99dRT7vDDD3ennHJKdLSaXr16uZYtW7r169e7TZs2RUeda9u2revXr1/0qxoaqWPHjtEvUQh79+51kydP9h18zpw5rnv37nkJe1I7xvjx492QIUO84s4HlCrKtZKgzmtjwFYidfVMtDvtj7wj9y+99JKXe36bXOBIiDsTygXPfeKJJ7qZM2fmlMlcZb/hhhtcixYtEjVI80yUn+3xxx93o0aNalByXS4qUS8lBRyCyBtjAYwZM8b/zYekTlxEsqnIsJmHHnrI7du3z73nPe9xxx13XHTUee/6a6+95tasWRMdcT7doUOHXO/evaMj1XzoQx9yTZo0ca+++mp0RBQDdb1nzx7Xrl276IhojDA4NTYvTX0xYMAAt2HDBrds2bLoSPFgCOPo6NGjR3QkWSxZssQdOHDAdenSJToiRPmw/oJDUIhKpiKN9/vuu89t377dG4ynnXaaP0bITKdOndzOnTvdww8/7I8BXuKtW7e6E044wacBZtAY/hs3bnT79+/3x0RxDBo0yP9dvnx5Wk8oxwh3+slPfuKNu9atW7uxY8fWWHrEM4FSZCNt/PowTMc8R1wbLmemWz4P8yVts2bNojPVZLtvSLg8bvedMWOGvya8t52rqqry+2GZyMPuFR63a+bOneuPs3/llVf6euSa+D0yXcMxym/p2ayuyIc6p+6vv/76lBfI8rH0oXeIa++++25/Prx3OYh7BHmOcIWGv5TBysnzZHqmfOBepGezPMP7F4PlCZTN2oe8rf44bveLlzc8l62+qZs2bdq4tWvXRkdqD3mRZyb5TxLUazZZytX26WQtX8I2DPONlwnCY/wNr8t1T8a9dHoh031++9vfenksRC9BXD+wzzGIlzl+3zBfytqqVavoTDWZdFWlQ7lZ9SI814g/C/vWl6h/6oy651zYtieddFJK1sJr0lFsfeaSvUzXpSMsAxv5GOSTbcyCQscbjlnabPUTpmOzOrb7pRurjXiZLrroouhM8qlI4x1v+mOPPeZDZ7p16+aPWcgMITXPPfecPwZ43R999FGf9tRTT/XHTj/9dJ/2kUce8b9FYbDMjsGEsNOhiJtlHy88XjDawujZs6efaF122WVu6tSpqWV7Czeg43Xt2tUvR9KRCHm65JJL/LV0MpbEb7vtNn+OZf/du3f7/SlTpviJGftseCHD5fN4vqtWrXLHHnusPwfZ7psPrORMmzbNX7tlyxY3bNgwf5znYlLIsxGqNXv2bK9MBg4cmAo1oqykZ98ghGvChAn++meffdZPNLjG7hF/PgivYUCfOHGiV6Ck514MMtQh9U6dU/ccJ7yDNNQhXiT2qYd4+ET79u1929pz1AeUjbri+e25mKCne6ZCYDBdt26dz5MlcULwQqVeW6i7119/3edPaAcTDbzb/KbcHTp0SN0vH/kwzMO8efNm/7cUWF5J9F7TZ9EJhchnprbndzpZy5fjjz8+1YbkSzgh/ZV7oWusPbkXkyVWDTjWvHnzlB5Cb/Tt2zeVNk42vRC/D8fsPoXqJbZQP7A9/fTTPl90J89m1/GX36Y74vkuWLDAO88MypVJV1Uqw4cP93XHuMeql8mbPQvjh9UT+1dccYXfRy9xHXXPb/QW0I4Y7+hv2p7V60zjT23qM5vsFdIOlIH0FnJn4wWyYGSTTX4XMt4AZQmfOR2cy9V/0o3V7LPFZZy8KFdDoCKNd2BARODf//73+5dPCZnBi05ITRwMfWLlMd5R3B/84Afdyy+/nFJGojDCmHeUER2UTkjHwUi2zsOG4kCBpMPOcw3XAkqFzkOHJzwARWiKEmVw3XXX+ckBimL+/Pn+OOD5Rx44ly5fyokChVz3zQcUHuUBvDCUJ1PoEEYbz2HpKevBgwdrTHLCsgCTIBRWeI09nxFew3HOkw64jkGGyVM6rA55biAf8gvDJ1B02Ywia3M2+pUNcNm8JMXCqhrwXIUYaplAFmwgpc4wAEsZ+rVjxw43b948v49nG4eDeevioWb5yEcI/a8QozIX5IW8lfL5ywn91+QO3VLoxC1X2xcra0zQrA3NkcGEiH36mrUnfZJ7kpZnuPTSS/1fQFay6ZJsesH6vq2Gcoz03D8d2eTO8jAZhquvvtr/RXeG+o+/5GO6I54vdch4bZB/IbqqErCYdzZCZsxrbM8S1hM6NWzvdNAu5vRiQ/cy/pB/nNrUZzbZK6QdKAP3tP5gZUYWrMzZZJOt0PGG9OZQ4LjlG0I+ufpPprE6XibApkC/NgQqynh/4403/AZ8beZf//qX70gXXHCBn7XR+ITUxEFYn3nmGd9gzLrwwKL0OS5qB52CzmGdMFQWbAwGphzi0B6sgJjRx4ZnA88AqyMos23btkWp34TrUBShAcO1dDoGXs5ThkwGTrb7ltr7iGIzpWz3wluBDFKOfLHnywTPTR8gb7uPDTTp4N4WcmLpqY9MA0g6MIBIy4ZBZAPcWWedlVbRhtB++XiPKRfeEQYJ9sOl1jhMGMIl4HCZvxC4h+URX2YtBp6TQSzd81K+UsgHIB9c39DhGakv5A1PX6kmiuSbr6wZYZ0jJxYGQb+iXYG+YEYR5aavhmEX4SSYCQC6K1+4xvQC+3gRTRfzN5zgh+SSO8qYTp44l063oqfJ7+KLL/Z/0+lto1BdVWlg4PGMyF26eirlZNjaqdj6zCZ7+bZDpjLwnMhCpuckP5NN0hQy3mCsMxEYPXq0T0sfyUSx/Ycyxe2IhkRFGO9nnnmmO+qoo7z3ihAMYB8DnMY/++yzfQzYE0884Y+n48EHH/R/WT6EdB56URwoAQNlwaQIZcFGh6dTpYNOQ1pbirONZTM8+3T8MG8jm9LgfumUpykgyHbfcOZfCnh2niP03Nhm3r98IL2VPx08ty3NhlsmryR1wLsgttxoG/0jU3uVCiZIhRoolIvyQSajCtlj4lDbZ7GwIrZyhwwVIx/IQVz20/WTQmCSjUwkCeqH8aCQcLdc5CtrENY5hjufJ7YJrekvA48g6fv37+9/mzccw4OVSuuH6CR0V75wTagX7P0FysPxTF73XHKHPuF6foek060G+d1+++3+b1weQ4OwUF1VaYT6K1M9lao/WTvVpj4zyV6+7ZCpDMDxTM9JXiabxYw36F2zBZikpzPga9N/KFPcjih0bKpk6tV4v+aaa/yskLgwZm2EuRACYyCECA/xdoTMZIthZ2DH84ViQ4jSeehF4eB9oP7D0Bhm9rwQTMxauCQVh06LAskU30ueYSwy97rxxht9u9NBw0GbTkwcMedM2YSxbywD42WAXPctNTxHoR5CFAhhQ4Z9mizTKgbPzfOnU3DpIH3Tpk0L+uRZqWBSx+SJPgm7du2qsfxKu5rSp85QyAZpGxqFyEe6+HTqjfoL+2AhsEJGfeezElJp4AUN5T6bLOWiEFmL1zkGADrJDBmrU4P+Bjii0D1msGAQoavsN30jm/GQSy9g8NC3LrzwQu+Ftz6WjmxyR3lZnQz1Ay/+AfmG1/GX31YX1JvF+wP6u3Pnzn4fCtVVlQb1b/orXT2xj261Nq8tta1PK0dc9gppB9o2HIuRf8bPML9sssm9ChlvKJOViz7FymU6Cu0/Ieg70g4dOjQ6Ut22lLMhUK/GO5VInDoNxBdkbr311uhMNffcc4/75z//6Q477DD/l9+ZME89CtY+NSmKg0HJlr/4Szxe6CWko/KyXmigAfss4bG0ZSENzJjpfOHSnXm7yJNrSG/3YpLGPsvblMOuYfDgpRS7H96DMF+WkPEyGNnuW1uYvKDoLOSC56COwiXDXCEdyCmfMbX0KO9s3/XmuVlmRMHbNWHIhw3qlIHn5Dz5ka+lZyt2QKW+QxlIh9U1Rs/06dOjo2/G1dp5wt9oG0BxH3PMManyhdfGnympFCIftDPPzCDFedJRbxhUueo/Exie8b6aFCgzYXvIPbKeTZZykU3WjEx1bsaz3RfHQXhfjmHo2MuCBvsYUHZPxrpsnsN89ALjHO+B4XENKUQvUa/o01A/YDDyF90ZXsdf2sDqIn4eI+/JJ5/05yCXrqpEwhBLxh2Ti3T1hNwwPrEPYRsXo19rW5/8Tid7hbQDbUt6G4tN/imbkU022QoZb+iLVq5s+q3Q/hOSru0K0ReVTpOqqqpD0X6t4aW20IAS9Uu52gPlj/Ii3jJdhxPZQWldddVV/j8JlzNkQyQTBldCNG6++WY/ANWG+uqrGgvKBwYRk4fQgBSSuXKiMat2lEM2K/ZrM6JyCZfLhBClhcGRFSz7HF1tuPbaa72nSZPshgFGFKuQmV5UFUI0DmS8i7zBI8iyW7hcJoQoPSxXl+LlYsKd4i+oiWRC6BihFYRYaDImRONGYTMNGLWHEKI+kO4RdY1kTlQq5ZBNed6FEEIIIYRICDLehRBCCCGESAgy3oUQQgghhEgIMt6FEEIIIYRICDLehRBCCCGESAgy3oUQQgghhEgIMt6FEEIIIYRICDLehRBCCCGESAgy3oUQQgghhEgIMt6FEEIIIYRICDLeRcUya9Yst3TpUtenTx+/sT9p0qTobN1jZbAypYMyr1y50o0bNy46khwoM2XnGdKRz/MLIURjZfDgwW7FihWJ1P8iWch4FxXL+PHj3ZAhQ9zq1aujI/XPwYMHXcuWLd2gQYOiI2+C4u7evXv0K5ns27fPnXjiif5Z4vDM7du3j36VBwY9Br909xdCCCGEjHchvDd/4cKF0a/sNG3a1BvwPXr0iI68ydChQ92ePXvc3r17oyPJg+dr1qyZ69WrV3SkGjztffv2dRs3boyOCCGEEKI+kPEu3oKFT+DxZrMwCgubsOPx8BDSYQSzcf7+++/3HlSOx/MCSx+eD41ojOpcISp2nd0L+Iv3du7cuW/JsxSsW7fOtWnTpsazU8ZOnTq5VatWRUfeJFc5Z8yYkapv0nKcdPH0EJ6Ln7f24bnJj7zZwlAjS8N90nHgwAH36KOPekM9rHeMeSYtGzZsiI5UY/lZeXgW7ml1w33ylQnKOXbsWNe6dWt3/fXXl7zdhBAiTlynmj4y3YZOs/PxMS+u/y666KLozFvhPqFuhPgYF+rFdLrdzoW6kWvuvvtuf97Kx2ZjCls4BoiGgYx3UQM6/ahRo9xtt93mFcbkyZPd7t27/f6UKVO8V5l9tmXLlvm0pmCgqqrKG7ec3759uzfCgN+LFi3yYSXx9MB5wmRatGiRUp7ZIE3Xrl39NVy7fv16d8kll0Rnnfcet2rVyp8bOXJkdLQ0vPjii96IHTBgQHSkOqQEr/Wzzz4bHakmn3KedNJJbsKECW7OnDnulFNOcRMnTnTTpk3z1+DJx6MP1BvnyIO8LL8rrrjC7xsdO3b0+Q0cONCXM1wlwAjnnkuWLImOvJVHHnnE/w1Dg3jWbdu2uf3790dHqtsMmdi0aVOqPJ07d/ZtGJKvTEydOtXXwUsvveTlrtTtJoQQIaZTMarRR+gdwgZDA7t3795eH3N+y5YtbtiwYX6fLa7/mjdv/hb9ly/ck3tTBvJasGCBPx6/j42ToUFOOOPixYtdv3793Jo1a3wZGZ9JT347d+6MUoqGgox3UQOMNAzC2bNn+98ogOuuuy5l9M2fP98fh+XLl3vjMgyxIKwCIwww2IihNkMRpYJnt0uXLv43kB5lBHgI8Fxj7KJ0MsE50pCWa4B7oNBsYsB97r33Xr+fDtKZN2X48OHewCzES7F27VrvfScfyoOnmvJgeBr5lhOly3nqh4kS9U+9cwyF3bZtW5+Weqa+582b538D+cXDXOL3C1cJevbs6e9B/pngGbivGf1cSx7Wjka6iQDyEQ8bKlQmhBCiLjCdylgG6EUcHuhJA8Pe9CVjCjqvXbt2eeu/QiA/04WMwdw3fh90Ozo+dMowqbAx22AlGMgjfk4kHxnvIgXGJoYlHtY4KCuMrHAGjxJBUZmSiENaDMVCZv2kJTwjG5SFl0YxuikDG95cDMx8jUAU2llnneWfGe8vBib7bGZoZgNlyLPhFTfliiEaUmg5rT7T1T9Qz5wnnUF90S7cKx08J+VkMOLZyCPbpMZgoDCjP5PBn04mclGMTAghRDlAH+K1DsNV0JPmMMlGMfovG4wpeNtHjx7ty2FOJO5joYRWRsYUxmrKGofzeOpxHLGv8MOGiYx3kYKOnskYR0GZxyFOJmOzGMif8JNsmAFIiIUZ3GwsGdalhwEjmLo677zzvLcmbtyWupzUczqFzWQn2wCCtxtF3r9/f/87PslIB8/CM51xxhl+KTeTwc/kJJQJJiXIiRBCVDro1NBxY1s+IXvpxsTa6j/GBcYHQl0Ie8SA5z5bt25NhV7alu1LbBznPOlABnzDQ8a7qAGGHnHXFmZBeMeNN96YCm8I47VRLB06dMjLGMwEMdLhvVBYYdhHOjiH0rXYw/qC52aikS6kBEpdTu6HsTxmzJjoiPP7lCFbG7AkjIFPOYhnz1a3IYQGnXDCCX4Ckm6yYfe0mHwg7CrX5EsIISoBdBhjWD6hknE2b97sDfV89R9GOGOoheTYeGdQBisHaQnnARtnQr2fDfLFYWTs2rUr2hMNCRnvogaEjOB15asfGHks1fGSIvssxeH5ZZ8NxcOLPHGPcyHs2LHDG5V2L+K98wlbwQvBKkG43Fmsd4H7FfNyJPdkosFLmJnqoJTl5B7UNy94Wl541GkX9jPBOVsdyWbkx8FgJ5aSCV06KA/LvEz2rDyk53mLhXsyWUAW5C0SQpQT02EYvKbD4l+UyUQ6fZxN/3Ge95tMX/KiLF/2MjDYrRyMF7x3xNjE75kzZ9a4D1umCQf5HHPMMal0jBHTp0+PzoqGQpOqqqpD0X6t4aU/lqBEZVDp7YGCIrZQXxUpP3VV1wx6I0aMcDfffHPGCY1o+GgsEHWNZE5UKuWQTXnehWjgYFDjtcnnRdXaQGgQqyh4zmW4CyGEEOVBxrsQDRSMaf5xByFQfO6smJdks2H52/Is3n2WjLWSIoQQQpQPhc00YNQeQoj6QLpH1DWSOVGplEM25XkXQgghhBAiIch4F0IIIYQQIiGU1Hg/dOiQa9KkSfRLCCGEEEKIxgk2MbZxqSmp8c4/IGjevHn0SwghhBBCiMYJNjG2cakpqfHOlyZatWoV/RJCCCGEEKJxgk1cm39cmImSGu8vv/yy/ze+Rx11VHRECCGEEEKIxgW2MDYxtnGpKfkLq/y7e/6Ffrt27dzhhx+uGHghhBBCCNHgwebF9sUGxhbGJi4HJf3OewgzDgrerFkzGfBCCCGEEKJBw8upxLgTKlMOj7tRNuNdCCGEEEIIUVpKHjYjhBBCCCGEKA8y3oUQQgghhEgIMt6FEEIIIYRICDLehRBCCCGESAgy3oUQQgghhEgIMt6FEEIIIYRICDLehRBCCCGESAgy3oUQQgghhEgIMt6FEEIIIYRICDLehRBCCCGESAgy3oUQQgghhEgIMt6FEEIIIYRICDLehRBCCCGESAgy3oUQQgghhEgIMt6FEEIIIYRICDLehRBCCCGESAgy3oUQQgghhEgIMt6FEEIIIYRICDLehRBCCCGESAgy3oUQQgghhEgIMt6FEEIIIYRICDLehRBCCCGESAgy3oUQQgghhEgIMt6FEEIIIYRICDLehRBCCCGESAgy3oUQQgghhEgIMt6FEEIIIYRICDLehRBCCCGESAgy3oUQQgghhEgIMt6FEEIIIYRICDLehRBCCCGESAgy3oUQQgghhEgIMt6FEEIIIYRICDLehRBCCCGESAgy3oUQQgghhEgIMt6FEEIIIYRICDLehRBCCCGESAgy3oUQQgghhEgIMt6FEEIIIYRICDLehRBCCCGESAgy3oUQQgghhEgIMt6FEEIIIYRICDLehRBCCCGESATO/X8MGFvRSQmK/wAAAABJRU5ErkJggg==;" parent="1" vertex="1">
          <mxGeometry x="80" y="370" width="486.99" height="190" as="geometry" />
        </mxCell>
        <mxCell id="51" value="" style="shape=link;html=1;rounded=0;width=16;" parent="1" edge="1">
          <mxGeometry width="100" relative="1" as="geometry">
            <mxPoint y="580" as="sourcePoint" />
            <mxPoint x="900" y="580" as="targetPoint" />
            <Array as="points">
              <mxPoint x="450" y="580" />
            </Array>
          </mxGeometry>
        </mxCell>
        <mxCell id="52" value="" style="html=1;shadow=0;dashed=0;align=center;verticalAlign=middle;shape=mxgraph.arrows2.jumpInArrow;dy=15;dx=38;arrowHead=55;direction=west;" parent="1" vertex="1">
          <mxGeometry x="150" y="180" width="175" height="100" as="geometry" />
        </mxCell>
      </root>
    </mxGraphModel>
  </diagram>
</mxfile>
